<?xml version="1.0" encoding="UTF-8" standalone="no"?>
<!DOCTYPE svg PUBLIC "-//W3C//DTD SVG 1.1//EN" "http://www.w3.org/Graphics/SVG/1.1/DTD/svg11.dtd">
<svg width="100%" height="100%" viewBox="0 0 35 35" version="1.1" xmlns="http://www.w3.org/2000/svg" xmlns:xlink="http://www.w3.org/1999/xlink" xml:space="preserve" xmlns:serif="http://www.serif.com/" style="fill-rule:evenodd;clip-rule:evenodd;stroke-linejoin:round;stroke-miterlimit:2;">
    <path d="M30.648,27.663C30.648,31.206 27.755,34.078 24.186,34.078C20.881,34.078 18.157,31.615 17.772,28.436L17.772,28.431C17.754,28.292 17.742,28.151 17.734,28.009C17.734,28.006 17.733,28.002 17.733,28L17.733,27.993C17.728,27.883 17.725,27.773 17.725,27.663C17.725,25.362 18.942,23.346 20.772,22.214C20.773,22.213 20.776,22.213 20.777,22.212C20.899,22.135 21.024,22.063 21.153,21.995C21.153,21.995 21.154,21.995 21.154,21.994C22.059,21.516 23.091,21.245 24.186,21.245C27.755,21.245 30.648,24.118 30.648,27.663Z" style="fill:white;fill-rule:nonzero;"/>
    <path d="M24.186,13.756C27.755,13.756 30.648,10.882 30.648,7.339C30.648,3.795 27.755,0.921 24.186,0.921C20.86,0.921 18.12,3.419 17.765,6.628C17.758,6.709 17.752,6.789 17.742,6.869C17.73,7.024 17.725,7.181 17.725,7.339C17.725,9.629 18.933,11.639 20.752,12.774C20.895,12.848 21.035,12.929 21.171,13.015C21.172,13.016 21.173,13.016 21.174,13.017C21.174,13.017 21.175,13.017 21.176,13.018C22.075,13.489 23.099,13.756 24.186,13.756Z" style="fill:white;fill-rule:nonzero;"/>
    <path d="M18.282,12.177C19.172,12.177 20.013,12.393 20.752,12.774C18.933,11.639 17.725,9.629 17.725,7.338C17.725,7.181 17.73,7.024 17.742,6.869C17.423,9.656 15.188,11.867 12.376,12.17C12.998,12.851 13.5,13.641 13.852,14.506C14.815,13.099 16.441,12.177 18.282,12.177Z" style="fill:white;fill-rule:nonzero;"/>
    <path d="M13.839,20.476L13.839,20.475C13.26,19.626 12.923,18.603 12.923,17.5L12.923,17.474C12.923,14.936 11.438,12.741 9.285,11.7C9.283,11.7 9.282,11.699 9.28,11.698C9.278,11.698 9.277,11.697 9.275,11.696C9.271,11.694 9.268,11.692 9.264,11.691C9.263,11.691 9.263,11.69 9.263,11.69C9.245,11.682 9.228,11.674 9.211,11.666C9.194,11.658 9.177,11.65 9.16,11.642C9.129,11.627 9.097,11.613 9.065,11.599L9.057,11.595C8.263,11.249 7.385,11.056 6.462,11.056C2.893,11.056 0,13.93 0,17.474C0,21.017 2.893,23.891 6.462,23.891C7.372,23.891 8.238,23.704 9.023,23.366C9.025,23.366 9.027,23.365 9.029,23.364C9.03,23.363 9.032,23.362 9.034,23.361C9.12,23.325 9.204,23.287 9.287,23.246L9.288,23.244C10.033,22.921 10.853,22.741 11.718,22.741C11.941,22.741 12.161,22.753 12.378,22.776C12.378,22.776 12.378,22.776 12.378,22.776C14.112,22.963 15.628,23.876 16.607,25.203C16.896,24.327 17.333,23.519 17.89,22.808C16.203,22.687 14.733,21.791 13.839,20.476Z" style="fill:white;fill-rule:nonzero;"/>
</svg>
