<?xml version="1.0" encoding="UTF-8" standalone="no"?>
<!DOCTYPE svg PUBLIC "-//W3C//DTD SVG 1.1//EN" "http://www.w3.org/Graphics/SVG/1.1/DTD/svg11.dtd">
<svg width="100%" height="100%" viewBox="0 0 64 64" version="1.1" xmlns="http://www.w3.org/2000/svg" xmlns:xlink="http://www.w3.org/1999/xlink" xml:space="preserve" xmlns:serif="http://www.serif.com/" style="fill-rule:evenodd;clip-rule:evenodd;stroke-linejoin:round;stroke-miterlimit:2;">
    <g transform="matrix(1.3701,0,0,1.3701,6.2717,0.0513356)">
        <path d="M6.352,4.668L25.574,10.724C25.705,10.765 25.848,10.717 25.927,10.605L26.445,9.88C26.571,9.705 26.488,9.458 26.282,9.394L7.216,3.387C7.103,3.351 6.98,3.382 6.897,3.466L6.222,4.141C6.054,4.309 6.123,4.597 6.351,4.668L6.352,4.668Z" style="fill:white;fill-rule:nonzero;"/>
    </g>
    <g transform="matrix(1.3701,0,0,1.3701,6.2717,0.0513356)">
        <path d="M2.993,7.922L19.961,18.452C20.102,18.539 20.289,18.502 20.386,18.366L20.879,17.676C20.986,17.527 20.944,17.318 20.788,17.222L3.942,6.768C3.817,6.691 3.654,6.709 3.551,6.813L2.936,7.428C2.791,7.573 2.82,7.814 2.993,7.922Z" style="fill:white;fill-rule:nonzero;"/>
    </g>
    <g transform="matrix(1.3701,0,0,1.3701,6.2717,0.0513356)">
        <path d="M37.934,16.123C37.602,14.105 36.233,12.528 34.29,11.916L29.672,10.462L29.931,10.099C31.328,8.144 31.513,5.601 30.413,3.464C29.313,1.327 27.137,0 24.734,0L10.495,0C10.411,0 10.33,0.034 10.271,0.093L9.425,0.94C9.225,1.139 9.366,1.481 9.649,1.481L24.734,1.481C26.608,1.481 28.238,2.476 29.095,4.142C29.952,5.809 29.815,7.713 28.725,9.238L28.185,9.994L27.28,11.262L22.335,18.184L15.569,27.658L3.193,44.985C2.692,45.685 3.193,46.658 4.054,46.658L22.245,46.658C24.864,46.658 27.121,45.157 28.134,42.742C28.86,41.008 28.802,39.148 28.034,37.545L34.899,34.988C36.609,34.351 37.784,32.826 37.965,31.011C38.146,29.194 37.295,27.468 35.744,26.506L32.116,24.254L35.929,21.188C37.457,19.981 38.249,18.045 37.933,16.123L37.934,16.123ZM7.432,41.896L17.179,28.114L19.255,30.227C19.368,30.342 19.551,30.354 19.678,30.253L20.346,29.725C20.494,29.608 20.507,29.389 20.375,29.253L18.048,26.883L22.775,20.199L27.977,23.427C28.09,23.498 28.236,23.489 28.341,23.407L29.047,22.849C29.219,22.712 29.204,22.446 29.017,22.331L23.631,18.988L28.764,11.729L33.843,13.329C35.218,13.763 36.196,14.868 36.456,16.287C36.716,17.706 36.197,19.087 35.065,19.981L31.88,22.497L20.496,31.492L7.595,42.048C7.493,42.132 7.354,42.002 7.429,41.895L7.432,41.896ZM26.754,42.201C25.975,44.023 24.149,45.175 22.167,45.175L9.088,45.175C8.91,45.175 8.865,44.93 9.03,44.865L26.635,38.064C27.284,39.331 27.344,40.82 26.754,42.201ZM34.963,27.764C36.047,28.435 36.617,29.594 36.491,30.863C36.364,32.131 35.576,33.154 34.381,33.599L17.522,40.012L8.611,43.475C8.478,43.527 8.376,43.351 8.486,43.261L21.654,32.67L24.541,35.608C24.628,35.698 24.762,35.726 24.88,35.682L25.744,35.353C25.957,35.271 26.018,34.997 25.857,34.833L22.814,31.735L30.893,25.237L34.962,27.763L34.963,27.764Z" style="fill:white;fill-rule:nonzero;"/>
    </g>
    <g transform="matrix(1.3701,0,0,1.3701,6.2717,0.0513356)">
        <path d="M15.225,25.593L15.724,24.893C15.814,24.767 15.8,24.596 15.692,24.486L1.142,9.674C1.018,9.548 0.816,9.547 0.692,9.672L0.093,10.27C-0.03,10.393 -0.031,10.593 0.091,10.717L14.739,25.63C14.878,25.77 15.109,25.753 15.224,25.592L15.225,25.593Z" style="fill:white;fill-rule:nonzero;"/>
    </g>
</svg>
